<?xml version="1.0" encoding="UTF-8"?>
<svg id="Layer_1" data-name="Layer 1" xmlns="http://www.w3.org/2000/svg" viewBox="0 0 772 772">
  <defs>
    <style>
      .cls-1 {
        fill: #ebffff;
      }

      .cls-2 {
        fill: #20acbf;
      }
    </style>
  </defs>
  <path class="cls-2" d="M367.99,15.59c19.19-18.23,47.13-21.89,67.23-2.98,10.8,10.58,17.91,24.46,26.59,36.81,35.72,51.93,71.18,104.38,104.27,157.99,19.43,30.73,35.74,63.28,51.47,95.94,20,39.82,33.69,82.62,43.07,126.1,5.37,26.92,4.15,54.69,1.73,82.01-2.32,28.41-9.96,55.92-21.12,82.09-21.15,54.32-42.34,82.39-88.33,118.33-13.18,10.34-26.74,20.31-41.2,28.79-42.2,24.21-92.14,34.8-140.46,30.22-69.73-6.93-143.21-30.12-189.31-85.58-42.85-50.98-70.87-124.09-74.16-190.64-2.45-66.72,25.03-130.34,54.51-189.47,19.3-39.82,41.17-79.18,67.38-115.27,12.28-16.93,25.28-33.31,38.01-49.91,32.49-41.93,62.15-87.27,100.35-124.44Z"/>
  <g>
    <path class="cls-1" d="M438.33,68.87c5.74,7.28,10.55,13.54,15.48,21.03,28.65,43.45,60.15,88.33,88,133.99,7.81,12.8,15.66,25.57,23.37,38.63,7.52,12.74,12.63,27.14,19.26,40.74,5.25,10.78,12.76,21.91,17.29,32.71,4.33,10.32,7.89,20.77,11.63,31.37,5.46,15.49,9.58,32.08,14.05,47.95,1.24,4.41,1,10.11,2.74,14.26.94,2.24,3.16,3.42,3.51,5.49,1.38,8.19,1.27,18.66,1.05,27.05-.56,20.81-1.21,41.41-4.11,61.89-1.67,11.83-4.84,25.39-9.52,36.48-7.05,16.71-15.67,31.94-20.64,49.36-1.44,5.06-12.15,21.81-15.79,26.21-16.61,20.11-34.67,36-55.29,51.47-16.89,12.67-34.7,26.15-54.44,34.8-4.81,2.11-10.44.18-15.18,2.82-7.6,4.23-8.11,2.61-15.36,4.64-2.3.65-3.66,2.58-5.68,3.32-7.74,2.84-43.74,5.22-52.58,4.51-4.55-.36-8.53-2.68-12.94-3.05-5.28-.44-9.66,1.5-14.92.91-5.63-.63-15.1-4.49-21.34-5.65-6.96-1.3-16.31-1.39-22.54-4.46-1.35-.66-2.22-2.25-3.39-2.61-2.95-.91-7.3.4-10.63-.37-1.85-.43-2.95-2.17-4.41-2.59-7.32-2.09-12.17-3.93-19.23-6.77-18.9-7.59-38.76-19.7-54.1-32.85-6.71-5.75-8.71-7.2-13.48-14.57-1.74-2.69-5.73-4.41-6.93-6.07-5.34-7.38-10.28-15.93-15.52-23.48-1.69-2.44-6.36-7.31-7.48-9.52-5.17-10.21-10.14-20.73-15.3-31.7-10.97-23.3-15.36-42.52-21.51-67.49-16.77-68.11,9.48-137.1,40.06-196.49,17.22-39.22,38.91-77.82,63.21-113.6,7.96-11.73,17.65-23.39,26.56-34.66,30.37-38.44,58.84-79.93,90.46-117.51,6.08-7.22,13.48-12.96,19.42-19.58,1.62-1.81,2.87-5.77,3.8-6.7.35-.35,7.91-4.86,8.49-5.01,3.96-1.02,11.78-1.76,15.74-1.18,1.41.21,8.23,4.41,9.5,5.5,5.88,5.07,10.88,22.06,16.62,29.43.5.64,1.68.83,2.1,1.35ZM431.93,120.29c-6.14-6.71-12.84-20.25-19.28-28.23-3.31-4.11-16.48-16.25-17.54-19.46-1.6-4.82.12-8.36-7.98-5.08-1.79,4.28-3.44,9.31-5.63,13.36-11.04,20.42-29.89,37.99-43.29,56.71-7.35,10.27-13.93,21.46-21.11,31.89-13.2,19.16-27.62,36.9-41,56-32.5,46.42-56.09,98.48-79.64,149.36-8.15,17.6-12.94,33.91-16.99,53.01-.44,2.07-2.4,3.79-2.76,6.24-1.09,7.41-1.73,14.49-3.11,21.89-2.58,13.89-2.08,27.99-3.94,42.08,4.29,43.3,17.77,83.23,39.88,119.11,12.67,20.56,29.39,42.05,49.81,55.38,12.57,8.2,23.44,12.66,37.06,17.75,9.35,3.49,18.67,5.04,28.08,7.92,2.24.69,3.95,2.69,5.88,3.14,3.7.86,6.89-1.35,10.75-.79,2.83.41,5.3,3.15,9.3,3.72,7.39,1.05,14.22,1.52,21.65,2.35,6.43.72,11.39,3.32,18.11,2.91,16.87-1.02,30.28-3.68,46.54-7.45,3.5-.81,5.51-3.35,7.88-4.12,3.31-1.07,8.28-.7,12.1-1.9,5.35-1.68,12.34-5.36,17.25-7.75,13.8-6.71,21.8-14.32,33.76-23.24,3.02-2.25,7.12-3.8,10.5-6.54,2.94-2.39,4.02-2.86,6.97-5,4.09-2.97,18.68-18.13,22.49-22.51,15.33-17.6,30.09-51.82,38.94-73.06,2.7-6.48,1.79-7.33,3.26-12.74.44-1.61,2.36-2.64,2.75-5.25,1.17-7.67,1.64-17.67,2.47-25.48.3-2.86,2.33-4.78,2.63-7.42.67-5.9-.69-13.07-.08-19.08.95-9.32,2.55-15.78,2.03-25.99-.59-11.63-3.25-16.2-5.76-26.24-1.55-6.18-.81-13.15-2.73-19.27-2.59-8.28-3.25-16.55-5.56-23.44-4.7-14.01-10.25-27.46-14.63-41.37-.86-2.75-3.07-3.89-3.87-6.13-4.85-13.63-11.18-24.22-18.52-35.71-1.29-2.02-1.17-6.29-2.17-8.6-.82-1.88-2.64-2.5-3.25-3.75-1.06-2.16-.7-5.83-1.75-8.25-1.37-3.12-5.43-8.68-7.2-11.8-7.58-13.33-16.3-26.45-23.77-40.22-8.13-14.96-19.52-29.87-28.89-44.15-5.62-8.55-11.49-16.87-17.37-25.61-11.49-17.07-17.56-31.17-32.26-47.23Z"/>
    <path class="cls-1" d="M421.33,215.38c-.22.31-5.69,3.74-6.53,3.96-2.05.53-6.53,1.15-8.73,1.26s-13.29-1.39-13.61.55c.4,5.55-.36,11.42.04,16.93.65,8.97,1.34,17.98,2,27,.38,5.25,2.13,10.99,2.13,16.37,7.56,1.44,22.19,2.43,22.89,12.72.21,3.14-4.55,6.89-7.54,7.35-5.9.9-12.11-2.03-17.96-2.03-8.26,0-18.69,3.75-27.1,4.03-3.15.11-8.77-1.53-12.4-1.46-7.15-5.35-5.3-15.3,3.73-17.26,2.79-.61,18.08-1.29,18.32-2.82l-2.19-56.78-.82-1.2c-1.4-1.01-10.12,1.48-12.58,1.48-.38,0-6.04-1.87-6.28-2.1-1.38-1.35-2.03-7.78-.95-10.08,2.15-4.61,5.48-5.78,10.34-6.68,7.66-1.41,23.5-3.79,30.96-4.11,3.12-.13,9.84-.14,12.96,0,2.7.12,9.14,1.31,11.05,3.02,2.06,1.85,3.7,7.84,2.29,9.85Z"/>
    <g>
      <path class="cls-1" d="M480.49,442.83c-.21.16-.09,1.08-.98,1.65-16.15,10.21-42.74,13.06-60.13,4.47-9.06-4.47-7.1-7.83-12.09-13.91-2.61-3.18-7.59-3.72-8.82-8.2-1.33-4.86,3.7-6.56,4.6-10.99.45-2.19-.08-4.43.41-6.59,2.99-13.25,18.87-28.18,31.53-32.47,6.37-2.16,8.12-.69,13.21,3.37,4.01,3.2,8.06,9.04,10.25,13.7,2.01,4.28,1.78,6.4.53,10.92-1.91,6.89-10.59,17.42-16.59,21.41-3.28,2.18-9.48,4.29-12.11,6.89-2.92,2.89.71,5.02,3.52,5.43,9.68,1.41,23.14.14,32.23-2.68,1.99-.62,7.41-.46,7.27-3.75-5.38-8.19-6.58-15.15-3.77-24.75,2.64-9.02,16.16-21.96,24.41-26.59,6.49-3.64,11.06-4.46,18.33-1.7,1.74.66,6.9,5.26,6.97.1.04-3.05-1.85-8.45-2.03-12.03-.34-6.74-.05-16.15,5.54-20.55,3.5-2.76,6.1-3.77,9.88-.86,5.81,4.47,2.29,11.27,2.58,17.42.47,9.65,3.56,19.25,3.06,28.96-.73,14.11-2.98,27.17,4.79,40.19,1.36,2.29,6.63,7.69,7.02,8.97,2.87,9.43-11.24,8.12-16.55,5.55-1.99-.96-3.1-3.19-4.29-3.79-2.34-1.18-6.1,2.82-8.27,3.78-9.35,4.14-17.24,3.44-26.72.29-2.88-.96-11.43-5.94-13.79-4.23ZM438.96,409.24c5.2-5.47,4.4-12.84-.65-18.23-9.11.6-21.47,18.9-18.89,26.91.89,2.77,4.97,1.05,7.06.33,3.55-1.23,9.84-6.22,12.49-9.01ZM521.03,430.33c2.66-2.2-.46-7.28-.77-10.25-.65-6.29,1.43-20.15-.11-24.89-1.41-4.37-13.9,1.22-16.92,2.82-5.94,3.14-15.85,14.1-14.93,20.99.4,2.99,5.98,10.6,8.67,11.37,1.45.42,3.23-.04,4.6.4,4.9,1.59,6.63,4.09,13.02,2.59.4-.09,6.17-2.81,6.44-3.04Z"/>
      <path class="cls-1" d="M281.08,376.37c-1.08,1.06-7.99,1.98-9.83,2.67-8.83,3.29-25.89,17.3-28.52,26.48-4.92,17.2,13.88,22.13,27,23.08,7.07.52,10.22-1.18,16.1-1.98,5.27-.71,11.25,1.05,10.48,7.4-.4,3.26-12.45,9.66-15.75,10.32-2.89.58-8.74.49-11.8.22-12.83-1.15-31.88-5.18-40.34-15.63-7.48-9.24-8.89-20.96-4.19-31.91,4.01-9.33,20.24-23.8,29.11-28.89,2.66-1.53,14.29-6.76,16.82-7.09,4.4-.58,11.08,4.98,11.97,9.23.24,1.14-.52,5.57-1.05,6.09Z"/>
      <path class="cls-1" d="M354.09,386.38l-8.89,6.6c-7.34,2.39-15.73,7.36-21.88,12.12-6.13,4.75-5.66,8.42-5.09,16,.57,7.66,5.5,14.65-2.44,20.47-5.31,3.89-9.16,3.64-12.97-2.06-2.81-4.2-.91-8-1.58-12.42-.31-2.06-1.72-3.44-2-6-.71-6.52-.66-21.49.02-28.06.42-4.07,2.37-9.91,6.28-11.72,6.72-3.1,10.4,5.7,14.19,5.28l19.28-8.81c8.04-.25,17.59-3.02,15.08,8.59Z"/>
      <path class="cls-1" d="M400.05,444.34c-4.41.98-8.97,6.6-12.73,7.77-5.97,1.86-14.54.37-19.09-4.01-10.75-10.36-11.64-42.88-5.91-55.8.25-.57,4.26-3.93,4.98-4.17,5.69-1.92,7.58,1.05,10.79,5.12,1.36,9.88-1.23,22.24.22,31.78.13.83,3.14,9.14,3.44,9.56,2.92,4.12,14.07-2.86,17.56-.55s2.22,7.23.75,10.31Z"/>
      <path class="cls-1" d="M368.53,370.29c-.34-.29-2.61-4.1-2.81-4.68-2.01-5.97,2.4-5.28,5.14-9.93,6.79.38,19,3,14.19,12.16-2.6,4.94-12.86,5.63-16.52,2.45Z"/>
    </g>
    <path class="cls-1" d="M259.73,540.56l22.71-11.84c3.25-.7,9.53,1.34,11.73,3.89,3.03,3.5,6.02,15.82,6.46,20.54s.9,10.99,1.14,15.86c.31,6.45-1.88,12.8-.81,18.82,1.13,6.38,7.2,6.55,9.26,10.73.59,1.2.98,5.03.37,5.88-.21.29-5.95,3.03-6.38,3.11-8.77,1.51-14.76-2.63-19.32-9.64-3.03-4.66-2.41-11.38-2.17-16.85.31-7.3.62-10.35,0-17.97-.28-3.38,1.42-13.13-3.5-13.57-1.8-.16-11.1,5.7-12.84,7.2-1.93,1.66-3.6,4.38-5.62,6.41-.86.86-2.61,1.29-2.84,1.62-.76,1.08.06,10.71-.17,13.34-.38,4.45-1.36,10.37-2.13,14.87-1.01,5.87-1.18,11.86-8.35,12.64-13.69,1.49-9.3-7.16-8.52-16.51,1.6-19.08,2.28-32.67,1.94-51.97-.14-7.7-1.3-35.25.49-40.61.54-1.63,2.05-2.69,2.99-4.06.5-.73.35-2.05.81-2.63,3.04-3.83,13.58-2.5,15.31,2.69,1.54,4.63-1.25,11.48-1.6,16.51-.29,4.12-.32,29.91,1.05,31.55Z"/>
    <path class="cls-1" d="M498.09,578.97c-1.43,1.03-5.26,3.58-7.11,4.35-2.66,1.1-15.84,4.77-16.82,6.18-3.09,4.49,2.4,8.63,6.49,9.62,12.33,2.97,24.12-3.05,34.75-8.37,2.59-1.3,10.94-7.03,12.85-7.22,3.5-.35,5.91,2.56,6.27,5.79.32,2.81-4.61,7.99-6.87,9.69-5.43,4.1-23.44,14.2-29.67,15.33-11.81,2.14-28.5.58-37.78-7.78-4.11-3.71-7.78-13.16-8.41-18.58-1.12-9.57,5.01-25.4,10.49-33.34,6.07-8.79,17.55-18.54,28.86-17.01,6.92.94,13.28,4.67,18.38,10.61,3.03,3.53,2.58,14.76-.04,18.61-2.99,4.41-6.91,8.89-11.42,12.13ZM494.51,555.77c-3.92-3.92-13.61,6.02-15.66,9.41-.98,1.63-1.19,3.7-2.13,5.37,1.81,1.53,13.11-4.72,14.95-6.55,1.56-1.55,4.69-6.38,2.83-8.23Z"/>
    <g>
      <path class="cls-1" d="M448.84,533.07c-5.87-.76-20.4,6.14-26.14,8.96-2.22,1.09-8.02,5.27-9.48,5.53-6.59,1.18-4.41-2.46-6.43-5.57-1.36-2.09-6-4.68-8.57-4.54-1.3.07-5.74,2.54-6.26,3.33-1.47,2.22-2.51,15.08-2.14,18.19,1.32,11.11,2.97,21.55,1.94,33.11-.14,1.58-.4,4.3-.43,4.6-.04.39-.19,11.41,1.35,12.43,1.14.76,10.73.74,12.38.26,2.59-.77,4.28-4.89,4.61-7.39.77-5.74-1.12-29.95.54-32.46,7.91-3.36,14.33-9.06,21.85-13.15,7.11-3.87,14.5-5.34,20.05-11.43.69-.75,2.1-.84,2.49-2,1.51-4.44-1.01-9.26-5.74-9.87Z"/>
      <path class="cls-1" d="M364.16,598.49c-5.84.77-22.75.81-24.26-6.64-1.28-6.27,5.02-3.71,9.12-4.5,8.22-1.59,19.49-10.69,25.09-16.87.73-.8,4.32-5.16,4.45-5.6,1.1-3.86.98-11.81.14-15.79-.33-1.53-3.27-6.33-4.42-7.59-3.51-3.86-7.95-4.71-13.02-3.91-4.16.65-7.4,1.37-12.04,1.95-12.72,1.61-22.29,13.29-27.7,24.3-5.28,10.73-3,28.33,2.81,38.62,1.77,3.13,3.78,5.39,7.18,6.82,12.19,5.12,32.01,4.39,44.44,0,6.67-2.36,10.41-4.83,12.79-11.72.36-.6.66-1.5.8-2.06-7.06-5.4-17.63,1.97-25.38,2.99ZM346.21,560.54c2.84-2.7,14.15-8.93,17.28-5.76,2.32,2.34-.98,7.05-2.76,9.28-3.23,4.07-17,11.6-20.59,6.52-1.02-1.45,4.71-8.76,6.06-10.04Z"/>
    </g>
  </g>
</svg>